<?xml version="1.0" standalone="no"?>
<!DOCTYPE svg PUBLIC "-//W3C//DTD SVG 20010904//EN"
 "http://www.w3.org/TR/2001/REC-SVG-20010904/DTD/svg10.dtd">
<svg version="1.0" xmlns="http://www.w3.org/2000/svg"
 width="1280.000000pt" height="1280.000000pt" viewBox="0 0 1280.000000 1280.000000"
 preserveAspectRatio="xMidYMid meet">
<metadata>
Created by potrace 1.11, written by Peter Selinger 2001-2013
</metadata>
<g transform="translate(0.000000,1280.000000) scale(0.100000,-0.100000)"
fill="#000000" stroke="none">
<path d="M7663 10021 c-37 -10 -13 -26 87 -60 119 -41 184 -78 245 -138 89
-90 140 -185 180 -335 33 -127 43 -223 43 -427 1 -246 -20 -342 -95 -431 -84
-101 -297 -176 -578 -205 -33 -4 -71 -8 -84 -10 -214 -35 -1285 -22 -1791 21
-30 2 -86 7 -125 10 -38 3 -77 7 -85 9 -8 2 -37 7 -64 11 -26 3 -64 12 -83 20
-29 12 -33 18 -23 29 10 12 65 33 92 35 4 0 47 14 95 31 236 82 329 178 271
280 -27 49 -101 100 -193 134 -77 29 -245 72 -315 80 -25 3 -56 7 -70 10 -92
19 -518 26 -700 11 -118 -9 -273 -31 -365 -52 -38 -9 -77 -17 -85 -19 -32 -7
-122 -46 -160 -70 -58 -37 -74 -65 -66 -120 19 -122 154 -206 356 -220 41 -3
89 -8 105 -11 94 -20 198 -113 237 -214 47 -122 29 -316 -43 -450 -56 -105
-162 -212 -248 -250 -38 -18 -165 -56 -214 -66 -12 -2 -33 -6 -47 -9 -32 -7
-54 -11 -110 -20 -25 -4 -54 -9 -65 -11 -38 -7 -101 -17 -130 -20 -53 -5 -129
-14 -165 -19 -19 -2 -69 -7 -110 -10 -41 -4 -95 -8 -120 -10 -55 -5 -276 -13
-550 -20 -113 -3 -216 -7 -230 -9 -14 -3 -56 -7 -95 -11 -63 -5 -202 -27 -263
-40 -34 -8 -64 -14 -97 -21 -217 -44 -562 -184 -771 -315 -245 -152 -483 -382
-642 -622 -28 -42 -46 -72 -112 -192 -34 -61 -99 -223 -128 -320 -159 -522
-119 -1086 118 -1686 125 -317 275 -526 570 -799 89 -83 290 -228 425 -307
258 -151 614 -289 845 -328 19 -3 43 -8 52 -11 64 -19 319 -42 433 -38 328 12
549 79 844 259 61 37 286 200 311 225 3 3 39 34 80 70 95 82 227 214 310 310
161 185 302 327 415 419 39 31 76 62 83 68 22 21 204 139 257 166 145 76 288
117 391 111 105 -6 189 -71 215 -167 25 -92 18 -173 -31 -402 -25 -116 -30
-250 -11 -317 25 -89 85 -120 153 -80 76 44 200 267 278 502 49 145 93 236
186 387 116 189 372 543 547 758 27 33 54 67 60 75 23 29 102 125 107 130 3 3
41 48 85 100 44 52 92 109 106 125 80 91 225 253 243 271 11 12 59 63 106 115
194 212 635 661 739 752 54 47 126 97 140 97 27 0 -4 -76 -88 -217 -99 -167
-211 -480 -257 -718 -2 -11 -6 -31 -9 -45 -5 -23 -28 -171 -39 -250 -15 -104
-21 -229 -21 -445 0 -229 3 -276 26 -460 39 -312 154 -659 282 -850 187 -279
507 -530 882 -689 50 -21 104 -45 122 -53 103 -44 369 -119 523 -147 217 -39
297 -47 495 -51 220 -3 398 15 583 60 12 3 30 7 41 9 48 11 191 59 269 92 313
129 635 364 853 624 30 36 56 67 59 70 12 11 109 148 142 200 199 313 315 622
383 1025 27 166 28 569 0 728 -30 171 -38 204 -70 316 -73 252 -186 488 -295
616 -214 252 -475 454 -810 627 -212 110 -558 240 -720 271 -14 2 -59 11 -100
20 -186 38 -262 46 -445 47 -154 0 -174 -2 -410 -46 -160 -29 -335 -38 -420
-20 -54 12 -149 64 -193 108 -94 91 -144 187 -282 538 -25 63 -106 323 -114
365 -2 11 -9 40 -16 65 -7 25 -14 53 -16 62 -2 10 -6 26 -9 36 -33 122 -94
470 -110 632 -16 161 -32 251 -61 336 -79 233 -241 339 -584 380 -73 8 -309
12 -337 5z m67 -2155 c172 -12 217 -17 289 -32 247 -51 276 -164 106 -424 -43
-65 -158 -219 -226 -301 -20 -24 -92 -111 -160 -194 -68 -82 -128 -155 -134
-161 -5 -7 -17 -20 -25 -30 -213 -266 -497 -571 -690 -741 -244 -216 -445
-303 -614 -268 -102 21 -238 134 -330 274 -146 224 -306 617 -492 1216 -108
349 -120 417 -90 490 18 43 32 55 97 89 90 48 238 69 559 81 102 4 186 8 187
9 5 5 1457 -3 1523 -8z m-3038 -352 c139 -96 320 -464 551 -1124 208 -592 329
-991 352 -1165 17 -130 -2 -228 -53 -261 -71 -46 -217 -51 -306 -11 -129 59
-201 171 -212 326 -7 104 -39 263 -80 399 -71 233 -209 581 -307 771 -90 176
-186 416 -203 511 -3 14 -9 41 -14 60 -23 85 -31 241 -17 318 12 68 90 170
152 198 39 18 90 9 137 -22z m-1652 -397 c103 -18 188 -49 255 -92 51 -33 94
-70 96 -83 18 -112 -49 -298 -195 -546 -52 -87 -151 -236 -204 -306 -18 -25
-42 -56 -52 -70 -127 -170 -193 -258 -203 -270 -90 -112 -271 -389 -316 -484
-128 -267 -39 -341 439 -361 246 -10 376 -16 405 -20 83 -8 153 -16 175 -20
190 -28 376 -62 389 -70 4 -2 24 -6 46 -9 22 -4 74 -16 115 -27 41 -11 82 -21
90 -23 35 -9 146 -58 205 -91 55 -30 112 -81 116 -103 12 -60 -5 -111 -63
-196 -33 -48 -121 -159 -148 -186 -3 -3 -39 -43 -80 -89 -375 -422 -759 -668
-1195 -767 -102 -23 -174 -29 -340 -29 -163 0 -192 3 -330 31 -159 31 -390
135 -574 258 -493 330 -828 765 -939 1221 -19 76 -23 98 -38 190 -4 22 -7 94
-8 159 -5 299 63 554 222 840 202 361 583 718 980 916 261 131 561 221 787
236 44 4 81 7 82 8 9 8 212 -5 283 -17z m7240 9 c52 -2 102 -7 110 -10 8 -3
34 -7 57 -10 49 -6 173 -37 258 -65 167 -53 355 -144 508 -245 255 -168 509
-433 672 -701 45 -74 135 -248 135 -261 0 -3 6 -20 14 -37 56 -127 107 -337
123 -502 12 -125 5 -417 -11 -444 -2 -3 -7 -26 -10 -51 -14 -103 -61 -263
-109 -370 -11 -25 -21 -47 -21 -50 -1 -3 -18 -37 -38 -77 -198 -384 -549 -689
-963 -836 -99 -36 -228 -71 -295 -82 -19 -3 -42 -8 -50 -10 -71 -20 -491 -28
-615 -12 -57 8 -75 10 -147 23 -83 14 -271 67 -333 94 -11 5 -54 23 -95 41
-41 17 -82 38 -91 45 -8 8 -20 14 -25 14 -12 0 -169 105 -225 150 -186 152
-332 337 -444 564 -116 237 -179 482 -210 816 -5 51 -5 397 -1 450 13 145 18
196 22 214 5 23 10 52 19 104 8 45 53 179 75 222 29 56 87 117 133 139 113 55
243 19 426 -118 131 -98 245 -215 521 -539 118 -139 373 -391 460 -456 204
-152 287 -129 221 62 -48 136 -146 306 -321 552 -101 141 -220 316 -220 323 0
2 -22 42 -48 88 -89 154 -193 394 -206 474 -2 17 -5 30 -6 30 -5 0 -12 70 -12
127 -1 59 3 72 27 105 69 94 173 164 299 202 77 24 108 29 216 38 41 3 77 7
78 9 2 1 9 1 15 -1 7 -2 55 -6 107 -9z m-6323 -600 c59 -30 192 -183 296 -341
60 -91 197 -360 197 -387 0 -8 3 -18 7 -22 19 -19 60 -171 69 -257 5 -44 2
-64 -14 -95 -56 -109 -219 -190 -471 -234 -163 -28 -442 -22 -572 13 -103 27
-178 61 -227 102 -57 48 -54 162 10 350 46 137 129 291 267 495 68 102 127
187 130 190 3 3 19 23 35 45 42 58 124 135 159 150 36 15 74 12 114 -9z"/>
</g>
</svg>
